<?xml version="1.0" encoding="utf-8"?>
<!-- Generator: Adobe Illustrator 24.1.3, SVG Export Plug-In . SVG Version: 6.00 Build 0)  -->
<svg version="1.1" id="Layer_1" xmlns="http://www.w3.org/2000/svg" xmlns:xlink="http://www.w3.org/1999/xlink" x="0px" y="0px"
	 width="400px" height="200px" viewBox="0 0 300 153.05" style="enable-background:new 0 0 300 153.05;" xml:space="preserve">
<style type="text/css">
	.st0{fill: #f4f4f4;}
	.st1{fill-rule:evenodd;clip-rule:evenodd;fill:url(#SVGID_1_);}
	.st2{fill:url(#SVGID_2_);}
	.st3{fill:url(#SVGID_3_);}
	.st4{fill:url(#SVGID_4_);}
	.st5{fill:url(#SVGID_5_);}
</style>
<g>
	<rect class="st0" width="300" height="153.05"/>
	<g>
		<linearGradient id="SVGID_1_" gradientUnits="userSpaceOnUse" x1="80.9803" y1="68.8771" x2="102.4601" y2="161.2399">
			<stop  offset="0" style="stop-color:#CC154E"/>
			<stop  offset="1" style="stop-color:#910638"/>
		</linearGradient>
		<path class="st1" d="M39.61,75.73c2.94,0,5.33,2.39,5.33,5.33c0,2.95-2.39,5.33-5.33,5.33c-2.95,0-5.33-2.39-5.33-5.33
			C34.27,78.11,36.66,75.73,39.61,75.73 M47.48,94.03c5.37,0,9.74,4.36,9.74,9.73c0,5.37-4.36,9.73-9.74,9.73
			c-5.37,0-9.73-4.36-9.73-9.73C37.75,98.4,42.11,94.03,47.48,94.03z M68.81,113.04c5.37,0,9.73,4.36,9.73,9.74
			c0,5.37-4.35,9.73-9.73,9.73c-5.37,0-9.74-4.36-9.74-9.73C59.07,117.4,63.43,113.04,68.81,113.04z M99.15,121.82
			c3.97,0,7.19,3.22,7.19,7.19c0,3.97-3.22,7.19-7.19,7.19c-3.97,0-7.19-3.22-7.19-7.19C91.97,125.04,95.19,121.82,99.15,121.82z
			 M114.68,20.44c4.62,0,8.36,3.74,8.36,8.35c0,4.61-3.74,8.35-8.36,8.35c-4.61,0-8.35-3.74-8.35-8.35
			C106.33,24.18,110.07,20.44,114.68,20.44z M83.41,16.86c3.71,0,6.72,3.01,6.72,6.72c0,3.71-3.01,6.73-6.72,6.73
			c-3.71,0-6.72-3.01-6.72-6.73C76.69,19.87,79.7,16.86,83.41,16.86z M56.06,31.69c2.95,0,5.33,2.39,5.33,5.33
			c0,2.95-2.39,5.34-5.33,5.34c-2.95,0-5.33-2.39-5.33-5.34C50.73,34.08,53.12,31.69,56.06,31.69z M40.99,55.56
			c2.31,0,4.17,1.87,4.17,4.17c0,2.3-1.87,4.17-4.17,4.17c-2.3,0-4.17-1.86-4.17-4.17C36.83,57.43,38.69,55.56,40.99,55.56z"/>
		<g>
			<linearGradient id="SVGID_2_" gradientUnits="userSpaceOnUse" x1="85.0171" y1="67.9383" x2="106.4968" y2="160.3011">
				<stop  offset="0" style="stop-color:#CC154E"/>
				<stop  offset="1" style="stop-color:#910638"/>
			</linearGradient>
			<path class="st2" d="M93.64,54.64c0,3.61-2.89,6.41-6.33,6.41c-3.53,0-6.41-2.8-6.41-6.41s2.97-6.33,6.41-6.33
				C90.76,48.31,93.64,51.03,93.64,54.64z M92.6,103.77H81.46V66.82H92.6V103.77z"/>
			<linearGradient id="SVGID_3_" gradientUnits="userSpaceOnUse" x1="126.1851" y1="58.3644" x2="147.6648" y2="150.7271">
				<stop  offset="0" style="stop-color:#CC154E"/>
				<stop  offset="1" style="stop-color:#910638"/>
			</linearGradient>
			<path class="st3" d="M159.84,103.77h-13.79V70.35l-14.67,17.63h-2l-14.67-17.63v33.42h-13.79V49.11h12.1l17.31,20.76l17.55-20.76
				h11.94V103.77z"/>
			<linearGradient id="SVGID_4_" gradientUnits="userSpaceOnUse" x1="178.4625" y1="46.2068" x2="199.9423" y2="138.5696">
				<stop  offset="0" style="stop-color:#CC154E"/>
				<stop  offset="1" style="stop-color:#910638"/>
			</linearGradient>
			<path class="st4" d="M205.93,103.77h-40.31V49.11h39.75v10.18H179.4v11.06h24.76v10.26H179.4v13.15h26.53V103.77z"/>
			<linearGradient id="SVGID_5_" gradientUnits="userSpaceOnUse" x1="234.1564" y1="33.2547" x2="255.6362" y2="125.6175">
				<stop  offset="0" style="stop-color:#CC154E"/>
				<stop  offset="1" style="stop-color:#910638"/>
			</linearGradient>
			<path class="st5" d="M265.73,59.37h-19.72v44.4h-13.87v-44.4h-19.8V49.11h53.38V59.37z"/>
		</g>
	</g>
</g>
</svg>
